{"accessors":[{"bufferView":0,"componentType":5126,"count":354,"max":[1.75242829322815,1.05346477031708,0.116858258843422],"min":[-1.25605964660645,-1.05520713329315,-0.117448270320892],"normalized":false,"type":"VEC3"},{"bufferView":1,"componentType":5126,"count":354,"max":[1.0,1.0,0.982994556427002,1.0],"min":[-0.708352565765381,-1.0,-0.990095615386963,-1.0],"normalized":false,"type":"VEC4"},{"bufferView":2,"componentType":5126,"count":354,"max":[0.90914398431778,0.990569591522217,0.997483432292938],"min":[-0.995053291320801,-0.990574836730957,-0.999996662139893],"normalized":false,"type":"VEC3"},{"bufferView":3,"componentType":5126,"count":354,"max":[1.00000011920929,1.00000011920929],"min":[0.0,0.5],"normalized":false,"type":"VEC2"},{"bufferView":4,"componentType":5123,"count":2016,"max":[353.0],"min":[0.0],"normalized":false,"type":"SCALAR"}],"asset":{"generator":"Godot Engine v4.5.stable.arch_linux@unknown","version":"2.0"},"bufferViews":[{"buffer":0,"byteLength":4248,"byteStride":12,"target":34962},{"buffer":0,"byteLength":5664,"byteOffset":4248,"byteStride":16,"target":34962},{"buffer":0,"byteLength":4248,"byteOffset":9912,"byteStride":12,"target":34962},{"buffer":0,"byteLength":2832,"byteOffset":14160,"byteStride":8,"target":34962},{"buffer":0,"byteLength":4032,"byteOffset":16992,"target":34963}],"buffers":[{"byteLength":21024,"uri":"scene0.bin"}],"extensionsUsed":["GODOT_single_root","KHR_materials_unlit"],"materials":[{"extensions":{"KHR_materials_unlit":{}},"pbrMetallicRoughness":{"baseColorFactor":[1.0,0.0,0.0,1.0],"metallicFactor":0.0,"roughnessFactor":1.0}}],"meshes":[{"primitives":[{"attributes":{"NORMAL":2,"POSITION":0,"TANGENT":1,"TEXCOORD_0":3},"indices":4,"material":0,"mode":4}]}],"nodes":[{"children":[1],"name":"Sketchfab_Scene"},{"children":[2],"name":"Sketchfab_model","rotation":[-0.707086622714996,-0.00533082755282521,-0.00533082755282521,0.707086682319641]},{"children":[3],"name":"54b2761560d74cf7a540d3659ba46cd1_fbx","rotation":[0.70710676908493,0.0,0.0,0.70710676908493],"scale":[0.00999999977648258,0.00999999977648258,0.00999999977648258]},{"children":[4],"name":"RootNode"},{"children":[5],"name":"Arrow","rotation":[-0.707106828689575,0.0,0.0,0.707106709480286],"scale":[100.0,100.0,100.0],"translation":[11.4829902648926,8.66330623626709,11.398099899292]},{"mesh":0,"name":"Arrow_Material_001_0"}],"scene":0,"scenes":[{"nodes":[0]}]}