{"asset":{"version":"2.0","generator":"Blockbench 4.12.5 glTF exporter"},"scenes":[{"nodes":[7],"name":"blockbench_export"}],"scene":0,"nodes":[{"name":"cuboid","mesh":0},{"rotation":[0,0,0.7071067811865475,0.7071067811865476],"translation":[-0.25,0,-0.609375],"name":"f_l","mesh":1},{"rotation":[0,0,-0.7071067811865475,0.7071067811865476],"translation":[0.25,0,-0.609375],"name":"f_r","mesh":2},{"rotation":[0,0,0.7071067811865475,0.7071067811865476],"translation":[-0.25,0,0.34375],"name":"r_l","mesh":3},{"rotation":[0,0,-0.7071067811865475,0.7071067811865476],"translation":[0.25,0,0.34375],"name":"r_r","mesh":4},{"name":"wheels","children":[1,2,3,4]},{"translation":[0,0.1875,0],"name":"root","children":[0,5]},{"children":[6]}],"bufferViews":[{"buffer":0,"byteOffset":0,"byteLength":5952,"target":34962,"byteStride":12},{"buffer":0,"byteOffset":5952,"byteLength":5952,"target":34962,"byteStride":12},{"buffer":0,"byteOffset":11904,"byteLength":3968,"target":34962,"byteStride":8},{"buffer":0,"byteOffset":15872,"byteLength":1464,"target":34963},{"buffer":0,"byteOffset":17336,"byteLength":2112,"target":34962,"byteStride":12},{"buffer":0,"byteOffset":19448,"byteLength":2112,"target":34962,"byteStride":12},{"buffer":0,"byteOffset":21560,"byteLength":1408,"target":34962,"byteStride":8},{"buffer":0,"byteOffset":22968,"byteLength":480,"target":34963},{"buffer":0,"byteOffset":23448,"byteLength":2112,"target":34962,"byteStride":12},{"buffer":0,"byteOffset":25560,"byteLength":2112,"target":34962,"byteStride":12},{"buffer":0,"byteOffset":27672,"byteLength":1408,"target":34962,"byteStride":8},{"buffer":0,"byteOffset":29080,"byteLength":480,"target":34963},{"buffer":0,"byteOffset":29560,"byteLength":2112,"target":34962,"byteStride":12},{"buffer":0,"byteOffset":31672,"byteLength":2112,"target":34962,"byteStride":12},{"buffer":0,"byteOffset":33784,"byteLength":1408,"target":34962,"byteStride":8},{"buffer":0,"byteOffset":35192,"byteLength":480,"target":34963},{"buffer":0,"byteOffset":35672,"byteLength":2112,"target":34962,"byteStride":12},{"buffer":0,"byteOffset":37784,"byteLength":2112,"target":34962,"byteStride":12},{"buffer":0,"byteOffset":39896,"byteLength":1408,"target":34962,"byteStride":8},{"buffer":0,"byteOffset":41304,"byteLength":480,"target":34963}],"buffers":[{"byteLength":41784,"uri":"data:application/octet-stream;base64,"}],"accessors":[{"bufferView":0,"componentType":5126,"count":496,"max":[0.4375,0.875,0.8125],"min":[-0.4375,0,-1.125],"type":"VEC3"},{"bufferView":1,"componentType":5126,"count":496,"max":[1,1,1],"min":[-1,-1,-1],"type":"VEC3"},{"bufferView":2,"componentType":5126,"count":496,"max":[0.48336055874824524,0.4609375],"min":[0,0],"type":"VEC2"},{"bufferView":3,"componentType":5123,"count":732,"max":[495],"min":[0],"type":"SCALAR"},{"bufferView":4,"componentType":5126,"count":176,"max":[0.203125,0.1875,0.203125],"min":[-0.203125,0,-0.203125],"type":"VEC3"},{"bufferView":5,"componentType":5126,"count":176,"max":[1,1,1],"min":[-1,-1,-1],"type":"VEC3"},{"bufferView":6,"componentType":5126,"count":176,"max":[0.4753609299659729,0.484375],"min":[0,0],"type":"VEC2"},{"bufferView":7,"componentType":5123,"count":240,"max":[175],"min":[0],"type":"SCALAR"},{"bufferView":8,"componentType":5126,"count":176,"max":[0.203125,0.1875,0.203125],"min":[-0.203125,0,-0.203125],"type":"VEC3"},{"bufferView":9,"componentType":5126,"count":176,"max":[1,1,1],"min":[-1,-1,-1],"type":"VEC3"},{"bufferView":10,"componentType":5126,"count":176,"max":[0.515625,0.5159484148025513],"min":[0,0],"type":"VEC2"},{"bufferView":11,"componentType":5123,"count":240,"max":[175],"min":[0],"type":"SCALAR"},{"bufferView":12,"componentType":5126,"count":176,"max":[0.203125,0.1875,0.203125],"min":[-0.203125,0,-0.203125],"type":"VEC3"},{"bufferView":13,"componentType":5126,"count":176,"max":[1,1,1],"min":[-1,-1,-1],"type":"VEC3"},{"bufferView":14,"componentType":5126,"count":176,"max":[0.4975968897342682,0.5078125],"min":[0.1640625,0.109375],"type":"VEC2"},{"bufferView":15,"componentType":5123,"count":240,"max":[175],"min":[0],"type":"SCALAR"},{"bufferView":16,"componentType":5126,"count":176,"max":[0.203125,0.1875,0.203125],"min":[-0.203125,0,-0.203125],"type":"VEC3"},{"bufferView":17,"componentType":5126,"count":176,"max":[1,1,1],"min":[-1,-1,-1],"type":"VEC3"},{"bufferView":18,"componentType":5126,"count":176,"max":[0.4921875,0.49251091480255127],"min":[0.0012015624670311809,0.046875],"type":"VEC2"},{"bufferView":19,"componentType":5123,"count":240,"max":[175],"min":[0],"type":"SCALAR"}],"materials":[{"pbrMetallicRoughness":{"metallicFactor":0,"roughnessFactor":1,"baseColorTexture":{"index":0}},"alphaMode":"MASK","alphaCutoff":0.05,"doubleSided":true}],"textures":[{"sampler":0,"source":0,"name":"Pickup Truck"}],"samplers":[{"magFilter":9728,"minFilter":9728,"wrapS":33071,"wrapT":33071}],"images":[{"mimeType":"image/png","uri":"data:image/png;base64,"}],"meshes":[{"primitives":[{"mode":4,"attributes":{"POSITION":0,"NORMAL":1,"TEXCOORD_0":2},"indices":3,"material":0}]},{"primitives":[{"mode":4,"attributes":{"POSITION":4,"NORMAL":5,"TEXCOORD_0":6},"indices":7,"material":0}]},{"primitives":[{"mode":4,"attributes":{"POSITION":8,"NORMAL":9,"TEXCOORD_0":10},"indices":11,"material":0}]},{"primitives":[{"mode":4,"attributes":{"POSITION":12,"NORMAL":13,"TEXCOORD_0":14},"indices":15,"material":0}]},{"primitives":[{"mode":4,"attributes":{"POSITION":16,"NORMAL":17,"TEXCOORD_0":18},"indices":19,"material":0}]}]}